# xmcd
# 
# Track frame offsets:
#     150
#     17712
#     32484
#     50318
#     64607
#     75680
#     88594
#     105279
#     122395
#     134923
#     152138
#     165661
#     177262
#     191190
#     205187
#     217303
#     232263
#     244055
#     266109
#     279376
# 
# Disc length: 4043
# 
# Revision: 2
# Processed by: cddbd v1.5.2PL0 Copyright (c) Steve Scherf et al.
# Submitted via: BonkEnc v1.0.8
# 
DISCID=1f0fc914
DTITLE=Various Artist - Garden
DYEAR=2002
DGENRE=Ethnic
TTITLE0=梵谷的花園 - Vincent (starry starry night) 梵谷之歌
TTITLE1=梵谷的花園 - Longer 更長久
TTITLE2=梵谷的花園 - Talkin'talk 喋喋不休
TTITLE3=梵谷的花園 - Shake your bon bon 搖擺雙臀
TTITLE4=梵谷的花園 - I wanna hold your hand 我想握住你的手
TTITLE5=梵谷的花園 - Quando,quando,quando 何時何時何時
TTITLE6=梵谷的花園 - Salta 自然鹹味
TTITLE7=梵谷的花園 - Dream a little dream 小小夢想
TTITLE8=梵谷的花園 - She 她
TTITLE9=梵谷的花園 - Just wave hello 輕聲說嗨
TTITLE10=梵谷的花園 - God rest you merry gentleme 臻至樂境
TTITLE11=梵谷的花園 - Singing in the rain 雨中旋律
TTITLE12=梵谷的花園 - San Francisco 舊金山
TTITLE13=梵谷的花園 - Pretty woman 麻雀變鳳凰
TTITLE14=梵谷的花園 - Singing in the rain 雨中歌唱
TTITLE15=梵谷的花園 - L'arrivee dans le jour ¡m¥ª©¤©@°Ø¡n
TTITLE16=梵谷的花園 - Drunken Åw¾K
TTITLE17=梵谷的花園 - The lord of the dance »R¤ý
TTITLE18=梵谷的花園 - Quando,quando,quando ¦ó®É,¦ó®É,¦ó®É
TTITLE19=梵谷的花園 - Vincent ±ë¨¦¤§ºq
EXTD=non
EXTT0=
EXTT1=
EXTT2=
EXTT3=
EXTT4=
EXTT5=
EXTT6=
EXTT7=
EXTT8=
EXTT9=
EXTT10=
EXTT11=
EXTT12=
EXTT13=
EXTT14=
EXTT15=
EXTT16=
EXTT17=
EXTT18=
EXTT19=
PLAYORDER=
